<mxfile host="app.diagrams.net" modified="2021-03-27T19:18:31.360Z" agent="5.0 (Windows NT 10.0; Win64; x64) AppleWebKit/537.36 (KHTML, like Gecko) Chrome/89.0.4389.90 Safari/537.36 Edg/89.0.774.63" etag="_hTI0OIWQWokQbnQN4bP" version="14.4.4" type="github">
  <diagram id="Jmt0tOEUqf-Zn0J5SS5X" name="Page-1">
    <mxGraphModel dx="862" dy="482" grid="1" gridSize="10" guides="1" tooltips="1" connect="1" arrows="1" fold="1" page="1" pageScale="1" pageWidth="850" pageHeight="1100" math="0" shadow="0">
      <root>
        <mxCell id="0" />
        <mxCell id="1" parent="0" />
        <mxCell id="mOSQkUv-fbBOUkvzw68a-9" style="edgeStyle=none;rounded=0;orthogonalLoop=1;jettySize=auto;html=1;exitX=0.5;exitY=1;exitDx=0;exitDy=0;entryX=0;entryY=0.5;entryDx=0;entryDy=0;" edge="1" parent="1" source="mOSQkUv-fbBOUkvzw68a-1" target="mOSQkUv-fbBOUkvzw68a-4">
          <mxGeometry relative="1" as="geometry" />
        </mxCell>
        <mxCell id="mOSQkUv-fbBOUkvzw68a-1" value="Main Page" style="rounded=0;whiteSpace=wrap;html=1;" vertex="1" parent="1">
          <mxGeometry x="360" y="40" width="120" height="60" as="geometry" />
        </mxCell>
        <mxCell id="mOSQkUv-fbBOUkvzw68a-12" style="edgeStyle=none;rounded=0;orthogonalLoop=1;jettySize=auto;html=1;exitX=0.5;exitY=1;exitDx=0;exitDy=0;entryX=0.5;entryY=0;entryDx=0;entryDy=0;" edge="1" parent="1" source="mOSQkUv-fbBOUkvzw68a-2" target="mOSQkUv-fbBOUkvzw68a-10">
          <mxGeometry relative="1" as="geometry" />
        </mxCell>
        <mxCell id="mOSQkUv-fbBOUkvzw68a-2" value="Medical" style="rounded=0;whiteSpace=wrap;html=1;" vertex="1" parent="1">
          <mxGeometry x="160" y="120" width="120" height="60" as="geometry" />
        </mxCell>
        <mxCell id="mOSQkUv-fbBOUkvzw68a-3" value="Info" style="rounded=0;whiteSpace=wrap;html=1;" vertex="1" parent="1">
          <mxGeometry x="360" y="160" width="120" height="60" as="geometry" />
        </mxCell>
        <mxCell id="mOSQkUv-fbBOUkvzw68a-4" value="Mental Health" style="rounded=0;whiteSpace=wrap;html=1;" vertex="1" parent="1">
          <mxGeometry x="560" y="120" width="120" height="60" as="geometry" />
        </mxCell>
        <mxCell id="mOSQkUv-fbBOUkvzw68a-5" value="" style="endArrow=classic;html=1;exitX=0.5;exitY=1;exitDx=0;exitDy=0;entryX=1;entryY=0.5;entryDx=0;entryDy=0;" edge="1" parent="1" source="mOSQkUv-fbBOUkvzw68a-1" target="mOSQkUv-fbBOUkvzw68a-2">
          <mxGeometry width="50" height="50" relative="1" as="geometry">
            <mxPoint x="400" y="300" as="sourcePoint" />
            <mxPoint x="450" y="250" as="targetPoint" />
          </mxGeometry>
        </mxCell>
        <mxCell id="mOSQkUv-fbBOUkvzw68a-6" value="" style="endArrow=classic;html=1;entryX=0.5;entryY=0;entryDx=0;entryDy=0;" edge="1" parent="1" target="mOSQkUv-fbBOUkvzw68a-3">
          <mxGeometry width="50" height="50" relative="1" as="geometry">
            <mxPoint x="420" y="100" as="sourcePoint" />
            <mxPoint x="450" y="250" as="targetPoint" />
          </mxGeometry>
        </mxCell>
        <mxCell id="mOSQkUv-fbBOUkvzw68a-18" style="edgeStyle=none;rounded=0;orthogonalLoop=1;jettySize=auto;html=1;exitX=0.5;exitY=1;exitDx=0;exitDy=0;entryX=0.5;entryY=0;entryDx=0;entryDy=0;" edge="1" parent="1" source="mOSQkUv-fbBOUkvzw68a-10" target="mOSQkUv-fbBOUkvzw68a-14">
          <mxGeometry relative="1" as="geometry" />
        </mxCell>
        <mxCell id="mOSQkUv-fbBOUkvzw68a-19" style="edgeStyle=none;rounded=0;orthogonalLoop=1;jettySize=auto;html=1;exitX=0.5;exitY=1;exitDx=0;exitDy=0;entryX=0.5;entryY=0;entryDx=0;entryDy=0;" edge="1" parent="1" source="mOSQkUv-fbBOUkvzw68a-10" target="mOSQkUv-fbBOUkvzw68a-13">
          <mxGeometry relative="1" as="geometry" />
        </mxCell>
        <mxCell id="mOSQkUv-fbBOUkvzw68a-10" value="Scene Safe" style="rounded=0;whiteSpace=wrap;html=1;" vertex="1" parent="1">
          <mxGeometry x="160" y="240" width="120" height="60" as="geometry" />
        </mxCell>
        <mxCell id="mOSQkUv-fbBOUkvzw68a-21" style="edgeStyle=none;rounded=0;orthogonalLoop=1;jettySize=auto;html=1;exitX=0.5;exitY=1;exitDx=0;exitDy=0;entryX=0.5;entryY=0;entryDx=0;entryDy=0;" edge="1" parent="1" source="mOSQkUv-fbBOUkvzw68a-13" target="mOSQkUv-fbBOUkvzw68a-20">
          <mxGeometry relative="1" as="geometry" />
        </mxCell>
        <mxCell id="mOSQkUv-fbBOUkvzw68a-13" value="Yes" style="rounded=0;whiteSpace=wrap;html=1;" vertex="1" parent="1">
          <mxGeometry x="80" y="360" width="120" height="60" as="geometry" />
        </mxCell>
        <mxCell id="mOSQkUv-fbBOUkvzw68a-17" style="edgeStyle=none;rounded=0;orthogonalLoop=1;jettySize=auto;html=1;exitX=0.5;exitY=1;exitDx=0;exitDy=0;" edge="1" parent="1" source="mOSQkUv-fbBOUkvzw68a-14" target="mOSQkUv-fbBOUkvzw68a-15">
          <mxGeometry relative="1" as="geometry" />
        </mxCell>
        <mxCell id="mOSQkUv-fbBOUkvzw68a-14" value="No" style="rounded=0;whiteSpace=wrap;html=1;" vertex="1" parent="1">
          <mxGeometry x="240" y="360" width="120" height="60" as="geometry" />
        </mxCell>
        <mxCell id="mOSQkUv-fbBOUkvzw68a-15" value="Leave, Call 911, Stop Here" style="rounded=0;whiteSpace=wrap;html=1;" vertex="1" parent="1">
          <mxGeometry x="240" y="450" width="120" height="60" as="geometry" />
        </mxCell>
        <mxCell id="mOSQkUv-fbBOUkvzw68a-24" style="edgeStyle=none;rounded=0;orthogonalLoop=1;jettySize=auto;html=1;exitX=0.5;exitY=1;exitDx=0;exitDy=0;entryX=0.5;entryY=0;entryDx=0;entryDy=0;" edge="1" parent="1" source="mOSQkUv-fbBOUkvzw68a-20" target="mOSQkUv-fbBOUkvzw68a-22">
          <mxGeometry relative="1" as="geometry" />
        </mxCell>
        <mxCell id="mOSQkUv-fbBOUkvzw68a-25" style="edgeStyle=none;rounded=0;orthogonalLoop=1;jettySize=auto;html=1;exitX=0.5;exitY=1;exitDx=0;exitDy=0;entryX=0.5;entryY=0;entryDx=0;entryDy=0;" edge="1" parent="1" source="mOSQkUv-fbBOUkvzw68a-20" target="mOSQkUv-fbBOUkvzw68a-23">
          <mxGeometry relative="1" as="geometry" />
        </mxCell>
        <mxCell id="mOSQkUv-fbBOUkvzw68a-20" value="Conscious" style="rounded=0;whiteSpace=wrap;html=1;" vertex="1" parent="1">
          <mxGeometry x="80" y="450" width="120" height="60" as="geometry" />
        </mxCell>
        <mxCell id="mOSQkUv-fbBOUkvzw68a-36" style="edgeStyle=none;rounded=0;orthogonalLoop=1;jettySize=auto;html=1;exitX=0.5;exitY=1;exitDx=0;exitDy=0;" edge="1" parent="1" source="mOSQkUv-fbBOUkvzw68a-22" target="mOSQkUv-fbBOUkvzw68a-27">
          <mxGeometry relative="1" as="geometry" />
        </mxCell>
        <mxCell id="mOSQkUv-fbBOUkvzw68a-22" value="Yes" style="rounded=0;whiteSpace=wrap;html=1;" vertex="1" parent="1">
          <mxGeometry x="80" y="550" width="120" height="60" as="geometry" />
        </mxCell>
        <mxCell id="mOSQkUv-fbBOUkvzw68a-34" style="edgeStyle=none;rounded=0;orthogonalLoop=1;jettySize=auto;html=1;exitX=0.5;exitY=1;exitDx=0;exitDy=0;entryX=0.5;entryY=0;entryDx=0;entryDy=0;" edge="1" parent="1" source="mOSQkUv-fbBOUkvzw68a-23" target="mOSQkUv-fbBOUkvzw68a-26">
          <mxGeometry relative="1" as="geometry" />
        </mxCell>
        <mxCell id="mOSQkUv-fbBOUkvzw68a-23" value="No" style="rounded=0;whiteSpace=wrap;html=1;" vertex="1" parent="1">
          <mxGeometry x="240" y="550" width="120" height="60" as="geometry" />
        </mxCell>
        <mxCell id="mOSQkUv-fbBOUkvzw68a-35" style="edgeStyle=none;rounded=0;orthogonalLoop=1;jettySize=auto;html=1;exitX=0;exitY=0.5;exitDx=0;exitDy=0;entryX=1;entryY=0.5;entryDx=0;entryDy=0;" edge="1" parent="1" source="mOSQkUv-fbBOUkvzw68a-26" target="mOSQkUv-fbBOUkvzw68a-27">
          <mxGeometry relative="1" as="geometry" />
        </mxCell>
        <mxCell id="mOSQkUv-fbBOUkvzw68a-26" value="Call 911" style="rounded=0;whiteSpace=wrap;html=1;" vertex="1" parent="1">
          <mxGeometry x="240" y="640" width="120" height="60" as="geometry" />
        </mxCell>
        <mxCell id="mOSQkUv-fbBOUkvzw68a-41" style="edgeStyle=none;rounded=0;orthogonalLoop=1;jettySize=auto;html=1;exitX=0.5;exitY=1;exitDx=0;exitDy=0;entryX=0.5;entryY=0;entryDx=0;entryDy=0;" edge="1" parent="1" source="mOSQkUv-fbBOUkvzw68a-27" target="mOSQkUv-fbBOUkvzw68a-39">
          <mxGeometry relative="1" as="geometry" />
        </mxCell>
        <mxCell id="mOSQkUv-fbBOUkvzw68a-42" style="edgeStyle=none;rounded=0;orthogonalLoop=1;jettySize=auto;html=1;exitX=0.5;exitY=1;exitDx=0;exitDy=0;entryX=0.5;entryY=0;entryDx=0;entryDy=0;" edge="1" parent="1" source="mOSQkUv-fbBOUkvzw68a-27" target="mOSQkUv-fbBOUkvzw68a-38">
          <mxGeometry relative="1" as="geometry" />
        </mxCell>
        <mxCell id="mOSQkUv-fbBOUkvzw68a-27" value="Airway/Breathing" style="rounded=0;whiteSpace=wrap;html=1;" vertex="1" parent="1">
          <mxGeometry x="80" y="640" width="120" height="60" as="geometry" />
        </mxCell>
        <mxCell id="mOSQkUv-fbBOUkvzw68a-45" style="edgeStyle=none;rounded=0;orthogonalLoop=1;jettySize=auto;html=1;exitX=0.5;exitY=1;exitDx=0;exitDy=0;entryX=0.5;entryY=0;entryDx=0;entryDy=0;" edge="1" parent="1" source="mOSQkUv-fbBOUkvzw68a-28" target="mOSQkUv-fbBOUkvzw68a-43">
          <mxGeometry relative="1" as="geometry" />
        </mxCell>
        <mxCell id="mOSQkUv-fbBOUkvzw68a-46" style="edgeStyle=none;rounded=0;orthogonalLoop=1;jettySize=auto;html=1;exitX=0.5;exitY=1;exitDx=0;exitDy=0;entryX=0.5;entryY=0;entryDx=0;entryDy=0;" edge="1" parent="1" source="mOSQkUv-fbBOUkvzw68a-28" target="mOSQkUv-fbBOUkvzw68a-44">
          <mxGeometry relative="1" as="geometry" />
        </mxCell>
        <mxCell id="mOSQkUv-fbBOUkvzw68a-28" value="Circulation/Pulse" style="rounded=0;whiteSpace=wrap;html=1;" vertex="1" parent="1">
          <mxGeometry x="80" y="800" width="120" height="60" as="geometry" />
        </mxCell>
        <mxCell id="mOSQkUv-fbBOUkvzw68a-56" style="edgeStyle=none;rounded=0;orthogonalLoop=1;jettySize=auto;html=1;exitX=0.5;exitY=1;exitDx=0;exitDy=0;entryX=0.5;entryY=0;entryDx=0;entryDy=0;" edge="1" parent="1" source="mOSQkUv-fbBOUkvzw68a-29" target="mOSQkUv-fbBOUkvzw68a-54">
          <mxGeometry relative="1" as="geometry" />
        </mxCell>
        <mxCell id="mOSQkUv-fbBOUkvzw68a-57" style="edgeStyle=none;rounded=0;orthogonalLoop=1;jettySize=auto;html=1;exitX=0.5;exitY=1;exitDx=0;exitDy=0;entryX=0.5;entryY=0;entryDx=0;entryDy=0;" edge="1" parent="1" source="mOSQkUv-fbBOUkvzw68a-29" target="mOSQkUv-fbBOUkvzw68a-55">
          <mxGeometry relative="1" as="geometry" />
        </mxCell>
        <mxCell id="mOSQkUv-fbBOUkvzw68a-29" value="Major Hemorage/Bleeding" style="rounded=0;whiteSpace=wrap;html=1;" vertex="1" parent="1">
          <mxGeometry x="80" y="960" width="120" height="60" as="geometry" />
        </mxCell>
        <mxCell id="mOSQkUv-fbBOUkvzw68a-51" style="edgeStyle=none;rounded=0;orthogonalLoop=1;jettySize=auto;html=1;exitX=1;exitY=0.5;exitDx=0;exitDy=0;entryX=0;entryY=0.5;entryDx=0;entryDy=0;" edge="1" parent="1" source="mOSQkUv-fbBOUkvzw68a-31" target="mOSQkUv-fbBOUkvzw68a-50">
          <mxGeometry relative="1" as="geometry" />
        </mxCell>
        <mxCell id="mOSQkUv-fbBOUkvzw68a-31" value="&lt;span&gt;Call 911&lt;/span&gt;" style="rounded=0;whiteSpace=wrap;html=1;" vertex="1" parent="1">
          <mxGeometry x="380" y="940" width="120" height="60" as="geometry" />
        </mxCell>
        <mxCell id="mOSQkUv-fbBOUkvzw68a-37" style="edgeStyle=none;rounded=0;orthogonalLoop=1;jettySize=auto;html=1;exitX=1;exitY=0.25;exitDx=0;exitDy=0;entryX=1;entryY=0.5;entryDx=0;entryDy=0;" edge="1" parent="1" source="mOSQkUv-fbBOUkvzw68a-27" target="mOSQkUv-fbBOUkvzw68a-27">
          <mxGeometry relative="1" as="geometry" />
        </mxCell>
        <mxCell id="mOSQkUv-fbBOUkvzw68a-52" style="edgeStyle=none;rounded=0;orthogonalLoop=1;jettySize=auto;html=1;exitX=0.5;exitY=1;exitDx=0;exitDy=0;entryX=0.5;entryY=0;entryDx=0;entryDy=0;" edge="1" parent="1" source="mOSQkUv-fbBOUkvzw68a-38" target="mOSQkUv-fbBOUkvzw68a-28">
          <mxGeometry relative="1" as="geometry" />
        </mxCell>
        <mxCell id="mOSQkUv-fbBOUkvzw68a-38" value="Yes" style="rounded=0;whiteSpace=wrap;html=1;" vertex="1" parent="1">
          <mxGeometry x="80" y="720" width="120" height="60" as="geometry" />
        </mxCell>
        <mxCell id="mOSQkUv-fbBOUkvzw68a-49" style="edgeStyle=none;rounded=0;orthogonalLoop=1;jettySize=auto;html=1;exitX=0.5;exitY=1;exitDx=0;exitDy=0;entryX=0.5;entryY=0;entryDx=0;entryDy=0;" edge="1" parent="1" source="mOSQkUv-fbBOUkvzw68a-39" target="mOSQkUv-fbBOUkvzw68a-31">
          <mxGeometry relative="1" as="geometry" />
        </mxCell>
        <mxCell id="mOSQkUv-fbBOUkvzw68a-39" value="No" style="rounded=0;whiteSpace=wrap;html=1;" vertex="1" parent="1">
          <mxGeometry x="240" y="720" width="120" height="60" as="geometry" />
        </mxCell>
        <mxCell id="mOSQkUv-fbBOUkvzw68a-53" style="edgeStyle=none;rounded=0;orthogonalLoop=1;jettySize=auto;html=1;exitX=0.5;exitY=1;exitDx=0;exitDy=0;entryX=0.5;entryY=0;entryDx=0;entryDy=0;" edge="1" parent="1" source="mOSQkUv-fbBOUkvzw68a-43" target="mOSQkUv-fbBOUkvzw68a-29">
          <mxGeometry relative="1" as="geometry" />
        </mxCell>
        <mxCell id="mOSQkUv-fbBOUkvzw68a-43" value="Yes" style="rounded=0;whiteSpace=wrap;html=1;" vertex="1" parent="1">
          <mxGeometry x="80" y="880" width="120" height="60" as="geometry" />
        </mxCell>
        <mxCell id="mOSQkUv-fbBOUkvzw68a-47" style="edgeStyle=none;rounded=0;orthogonalLoop=1;jettySize=auto;html=1;exitX=0.5;exitY=1;exitDx=0;exitDy=0;entryX=0;entryY=0.75;entryDx=0;entryDy=0;" edge="1" parent="1" source="mOSQkUv-fbBOUkvzw68a-44" target="mOSQkUv-fbBOUkvzw68a-31">
          <mxGeometry relative="1" as="geometry" />
        </mxCell>
        <mxCell id="mOSQkUv-fbBOUkvzw68a-44" value="No" style="rounded=0;whiteSpace=wrap;html=1;" vertex="1" parent="1">
          <mxGeometry x="240" y="880" width="120" height="60" as="geometry" />
        </mxCell>
        <mxCell id="mOSQkUv-fbBOUkvzw68a-50" value="CPR w/ instructions &amp;amp; metronome" style="rounded=0;whiteSpace=wrap;html=1;" vertex="1" parent="1">
          <mxGeometry x="530" y="940" width="120" height="60" as="geometry" />
        </mxCell>
        <mxCell id="mOSQkUv-fbBOUkvzw68a-59" style="edgeStyle=none;rounded=0;orthogonalLoop=1;jettySize=auto;html=1;exitX=0.5;exitY=1;exitDx=0;exitDy=0;entryX=0.5;entryY=0;entryDx=0;entryDy=0;" edge="1" parent="1" source="mOSQkUv-fbBOUkvzw68a-54" target="mOSQkUv-fbBOUkvzw68a-58">
          <mxGeometry relative="1" as="geometry" />
        </mxCell>
        <mxCell id="mOSQkUv-fbBOUkvzw68a-54" value="Yes" style="rounded=0;whiteSpace=wrap;html=1;" vertex="1" parent="1">
          <mxGeometry x="80" y="1040" width="120" height="60" as="geometry" />
        </mxCell>
        <mxCell id="mOSQkUv-fbBOUkvzw68a-55" value="No" style="rounded=0;whiteSpace=wrap;html=1;" vertex="1" parent="1">
          <mxGeometry x="240" y="1040" width="120" height="60" as="geometry" />
        </mxCell>
        <mxCell id="mOSQkUv-fbBOUkvzw68a-62" style="edgeStyle=none;rounded=0;orthogonalLoop=1;jettySize=auto;html=1;exitX=0.25;exitY=1;exitDx=0;exitDy=0;entryX=0;entryY=0.5;entryDx=0;entryDy=0;" edge="1" parent="1" source="mOSQkUv-fbBOUkvzw68a-58" target="mOSQkUv-fbBOUkvzw68a-60">
          <mxGeometry relative="1" as="geometry" />
        </mxCell>
        <mxCell id="mOSQkUv-fbBOUkvzw68a-63" style="edgeStyle=none;rounded=0;orthogonalLoop=1;jettySize=auto;html=1;exitX=0.25;exitY=1;exitDx=0;exitDy=0;entryX=0;entryY=0.5;entryDx=0;entryDy=0;" edge="1" parent="1" source="mOSQkUv-fbBOUkvzw68a-58" target="mOSQkUv-fbBOUkvzw68a-61">
          <mxGeometry relative="1" as="geometry" />
        </mxCell>
        <mxCell id="mOSQkUv-fbBOUkvzw68a-58" value="severity?" style="rounded=0;whiteSpace=wrap;html=1;" vertex="1" parent="1">
          <mxGeometry x="80" y="1130" width="120" height="60" as="geometry" />
        </mxCell>
        <mxCell id="mOSQkUv-fbBOUkvzw68a-60" value="911/Control Bleeding" style="rounded=0;whiteSpace=wrap;html=1;" vertex="1" parent="1">
          <mxGeometry x="160" y="1210" width="120" height="60" as="geometry" />
        </mxCell>
        <mxCell id="mOSQkUv-fbBOUkvzw68a-61" value="Control Bleeding" style="rounded=0;whiteSpace=wrap;html=1;" vertex="1" parent="1">
          <mxGeometry x="160" y="1290" width="120" height="60" as="geometry" />
        </mxCell>
      </root>
    </mxGraphModel>
  </diagram>
</mxfile>
